<svg width="32" height="32" viewBox="0 0 32 32" fill="none" xmlns="http://www.w3.org/2000/svg">
<g clip-path="url(#clip0_23_113)">
<path fill-rule="evenodd" clip-rule="evenodd" d="M15.782 31.5639C24.4981 31.5639 31.564 24.4981 31.564 15.782C31.564 7.06584 24.4981 0 15.782 0C7.06582 0 0 7.06584 0 15.782C0 24.4981 7.06582 31.5639 15.782 31.5639ZM20.7054 7.35191C20.9451 6.50064 20.119 5.99725 19.3645 6.53476L8.83248 14.0377C8.01426 14.6206 8.14296 15.782 9.02581 15.782H11.7992V15.7605H17.2043L12.8001 17.3145L10.8586 24.2121C10.6189 25.0633 11.4449 25.5667 12.1995 25.0292L22.7315 17.5263C23.5497 16.9433 23.4209 15.782 22.5382 15.782H18.3324L20.7054 7.35191Z" fill="#A8FF35"/>
</g>
<defs>
<clipPath id="clip0_23_113">
<rect width="32" height="32" fill="white"/>
</clipPath>
</defs>
</svg>
