<svg width="120" height="28" viewBox="0 0 120 28" fill="none" xmlns="http://www.w3.org/2000/svg">
<g filter="url(#filter0_d_2_325)">
<path d="M4.59908 19V1.54545H16.1559V4.58807H8.28942V8.74716H15.3889V11.7898H8.28942V19H4.59908ZM18.57 19V5.90909H22.2006V19H18.57ZM20.3938 4.22159C19.854 4.22159 19.391 4.04261 19.0046 3.68466C18.6239 3.32102 18.4336 2.88636 18.4336 2.38068C18.4336 1.88068 18.6239 1.4517 19.0046 1.09375C19.391 0.730113 19.854 0.548295 20.3938 0.548295C20.9336 0.548295 21.3938 0.730113 21.7745 1.09375C22.1609 1.4517 22.354 1.88068 22.354 2.38068C22.354 2.88636 22.1609 3.32102 21.7745 3.68466C21.3938 4.04261 20.9336 4.22159 20.3938 4.22159ZM28.7397 11.4318V19H25.109V5.90909H28.5692V8.21875H28.7227C29.0124 7.45739 29.4982 6.85511 30.18 6.41193C30.8619 5.96307 31.6886 5.73864 32.6602 5.73864C33.5692 5.73864 34.3619 5.9375 35.038 6.33523C35.7141 6.73295 36.2397 7.30114 36.6147 8.03977C36.9897 8.77273 37.1772 9.64773 37.1772 10.6648V19H33.5465V11.3125C33.5522 10.5114 33.3477 9.88636 32.9329 9.4375C32.5181 8.98295 31.9471 8.75568 31.2198 8.75568C30.7312 8.75568 30.2994 8.8608 29.9244 9.07102C29.555 9.28125 29.2653 9.58807 29.055 9.99148C28.8505 10.3892 28.7454 10.8693 28.7397 11.4318ZM44.8626 19.2131C43.8683 19.2131 42.9677 18.9574 42.1609 18.446C41.3597 17.929 40.7234 17.1705 40.2518 16.1705C39.7859 15.1648 39.5529 13.9318 39.5529 12.4716C39.5529 10.9716 39.7944 9.72443 40.2773 8.73011C40.7603 7.73011 41.4023 6.98295 42.2035 6.48864C43.0103 5.98864 43.8938 5.73864 44.854 5.73864C45.587 5.73864 46.1978 5.86364 46.6864 6.11364C47.1808 6.35795 47.5785 6.66477 47.8796 7.03409C48.1864 7.39773 48.4194 7.75568 48.5785 8.10795H48.6893V1.54545H52.3114V19H48.7319V16.9034H48.5785C48.408 17.267 48.1665 17.6278 47.854 17.9858C47.5472 18.3381 47.1467 18.6307 46.6523 18.8636C46.1637 19.0966 45.5671 19.2131 44.8626 19.2131ZM46.0131 16.3239C46.5984 16.3239 47.0927 16.1648 47.4961 15.8466C47.9052 15.5227 48.2177 15.071 48.4336 14.4915C48.6552 13.9119 48.766 13.233 48.766 12.4545C48.766 11.6761 48.658 11 48.4421 10.4261C48.2262 9.85227 47.9137 9.40909 47.5046 9.09659C47.0955 8.78409 46.5984 8.62784 46.0131 8.62784C45.4165 8.62784 44.9137 8.78977 44.5046 9.11364C44.0955 9.4375 43.7859 9.88636 43.5756 10.4602C43.3654 11.0341 43.2603 11.6989 43.2603 12.4545C43.2603 13.2159 43.3654 13.8892 43.5756 14.4744C43.7915 15.054 44.1012 15.5085 44.5046 15.8381C44.9137 16.1619 45.4165 16.3239 46.0131 16.3239ZM62.2596 5.90909V8.63636H54.3761V5.90909H62.2596ZM56.1658 2.77273H59.7965V14.9773C59.7965 15.3125 59.8477 15.5739 59.9499 15.7614C60.0522 15.9432 60.1942 16.071 60.3761 16.1449C60.5636 16.2187 60.7795 16.2557 61.0238 16.2557C61.1942 16.2557 61.3647 16.2415 61.5352 16.2131C61.7056 16.179 61.8363 16.1534 61.9272 16.1364L62.4982 18.8381C62.3164 18.8949 62.0607 18.9602 61.7312 19.0341C61.4016 19.1136 61.0011 19.1619 60.5295 19.179C59.6545 19.2131 58.8874 19.0966 58.2283 18.8295C57.5749 18.5625 57.0664 18.1477 56.7028 17.5852C56.3391 17.0227 56.1602 16.3125 56.1658 15.4545V2.77273ZM64.6246 19V5.90909H68.1445V8.19318H68.2809C68.5195 7.38068 68.9201 6.76705 69.4826 6.35227C70.0451 5.93182 70.6928 5.72159 71.4258 5.72159C71.6076 5.72159 71.8036 5.73295 72.0138 5.75568C72.2241 5.77841 72.4087 5.80966 72.5678 5.84943V9.07102C72.3974 9.01989 72.1616 8.97443 71.8604 8.93466C71.5593 8.89489 71.2837 8.875 71.0337 8.875C70.4996 8.875 70.0224 8.99148 69.6019 9.22443C69.1871 9.4517 68.8576 9.76989 68.6133 10.179C68.3746 10.5881 68.2553 11.0597 68.2553 11.5938V19H64.6246ZM79.8015 19.2557C78.4549 19.2557 77.2958 18.983 76.3242 18.4375C75.3583 17.8864 74.614 17.108 74.0913 16.1023C73.5685 15.0909 73.3072 13.8949 73.3072 12.5142C73.3072 11.1676 73.5685 9.9858 74.0913 8.96875C74.614 7.9517 75.3498 7.15909 76.2987 6.59091C77.2532 6.02273 78.3725 5.73864 79.6566 5.73864C80.5202 5.73864 81.3242 5.87784 82.0685 6.15625C82.8185 6.42898 83.4719 6.84091 84.0288 7.39205C84.5913 7.94318 85.0288 8.63636 85.3413 9.47159C85.6538 10.3011 85.81 11.2727 85.81 12.3864V13.3835H74.756V11.1335H82.3924C82.3924 10.6108 82.2788 10.1477 82.0515 9.74432C81.8242 9.34091 81.5089 9.02557 81.1055 8.7983C80.7077 8.56534 80.2447 8.44886 79.7163 8.44886C79.1651 8.44886 78.6765 8.5767 78.2504 8.83239C77.8299 9.08239 77.5004 9.42045 77.2617 9.84659C77.0231 10.267 76.9009 10.7358 76.8952 11.2528V13.392C76.8952 14.0398 77.0146 14.5994 77.2532 15.071C77.4975 15.5426 77.8413 15.9062 78.2844 16.1619C78.7276 16.4176 79.2532 16.5455 79.8612 16.5455C80.2646 16.5455 80.6339 16.4886 80.9691 16.375C81.3043 16.2614 81.5913 16.0909 81.8299 15.8636C82.0685 15.6364 82.2504 15.358 82.3754 15.0284L85.7333 15.25C85.5629 16.0568 85.2134 16.7614 84.685 17.3636C84.1623 17.9602 83.4862 18.4261 82.6566 18.7614C81.8327 19.0909 80.881 19.2557 79.8015 19.2557ZM91.81 11.4318V19H88.1793V5.90909H91.6396V8.21875H91.793C92.0827 7.45739 92.5685 6.85511 93.2504 6.41193C93.9322 5.96307 94.7589 5.73864 95.7305 5.73864C96.6396 5.73864 97.4322 5.9375 98.1083 6.33523C98.7844 6.73295 99.31 7.30114 99.685 8.03977C100.06 8.77273 100.248 9.64773 100.248 10.6648V19H96.6168V11.3125C96.6225 10.5114 96.418 9.88636 96.0032 9.4375C95.5884 8.98295 95.0174 8.75568 94.2901 8.75568C93.8015 8.75568 93.3697 8.8608 92.9947 9.07102C92.6254 9.28125 92.3356 9.58807 92.1254 9.99148C91.9208 10.3892 91.8157 10.8693 91.81 11.4318ZM107.933 19.2131C106.939 19.2131 106.038 18.9574 105.231 18.446C104.43 17.929 103.794 17.1705 103.322 16.1705C102.856 15.1648 102.623 13.9318 102.623 12.4716C102.623 10.9716 102.865 9.72443 103.348 8.73011C103.831 7.73011 104.473 6.98295 105.274 6.48864C106.081 5.98864 106.964 5.73864 107.924 5.73864C108.657 5.73864 109.268 5.86364 109.757 6.11364C110.251 6.35795 110.649 6.66477 110.95 7.03409C111.257 7.39773 111.49 7.75568 111.649 8.10795H111.76V1.54545H115.382V19H111.802V16.9034H111.649C111.478 17.267 111.237 17.6278 110.924 17.9858C110.618 18.3381 110.217 18.6307 109.723 18.8636C109.234 19.0966 108.637 19.2131 107.933 19.2131ZM109.083 16.3239C109.669 16.3239 110.163 16.1648 110.566 15.8466C110.975 15.5227 111.288 15.071 111.504 14.4915C111.725 13.9119 111.836 13.233 111.836 12.4545C111.836 11.6761 111.728 11 111.512 10.4261C111.297 9.85227 110.984 9.40909 110.575 9.09659C110.166 8.78409 109.669 8.62784 109.083 8.62784C108.487 8.62784 107.984 8.78977 107.575 9.11364C107.166 9.4375 106.856 9.88636 106.646 10.4602C106.436 11.0341 106.331 11.6989 106.331 12.4545C106.331 13.2159 106.436 13.8892 106.646 14.4744C106.862 15.054 107.172 15.5085 107.575 15.8381C107.984 16.1619 108.487 16.3239 109.083 16.3239Z" fill="white"/>
</g>
<defs>
<filter id="filter0_d_2_325" x="0.599121" y="0.54834" width="118.783" height="26.7073" filterUnits="userSpaceOnUse" color-interpolation-filters="sRGB">
<feFlood flood-opacity="0" result="BackgroundImageFix"/>
<feColorMatrix in="SourceAlpha" type="matrix" values="0 0 0 0 0 0 0 0 0 0 0 0 0 0 0 0 0 0 127 0" result="hardAlpha"/>
<feOffset dy="4"/>
<feGaussianBlur stdDeviation="2"/>
<feComposite in2="hardAlpha" operator="out"/>
<feColorMatrix type="matrix" values="0 0 0 0 0 0 0 0 0 0 0 0 0 0 0 0 0 0 0.25 0"/>
<feBlend mode="normal" in2="BackgroundImageFix" result="effect1_dropShadow_2_325"/>
<feBlend mode="normal" in="SourceGraphic" in2="effect1_dropShadow_2_325" result="shape"/>
</filter>
</defs>
</svg>
